<svg id="Layer_1" data-name="Layer 1" xmlns="http://www.w3.org/2000/svg" viewBox="0 0 204.83 43.39"><defs><style>.cls-1{fill:#1d1d1b;}</style></defs><path class="cls-1" d="M8.59,53.53V11.9h26.8v1.17H9.76V31.6H31.64v1.17H9.76V53.53Z" transform="translate(-8.59 -10.73)"/><path class="cls-1" d="M35.39,44.8A6.88,6.88,0,0,1,37,40.28a10.78,10.78,0,0,1,4.43-3.05,17.69,17.69,0,0,1,6.51-1.11,32.6,32.6,0,0,1,5.31.44,24.72,24.72,0,0,1,4.89,1.26V34.36a10.77,10.77,0,0,0-2.72-7.66,9.51,9.51,0,0,0-7.25-2.9,13.31,13.31,0,0,0-4.72,1,22.8,22.8,0,0,0-5.13,2.79l-.7-.94a26.63,26.63,0,0,1,5.57-3,14,14,0,0,1,5-1A10.72,10.72,0,0,1,56.3,25.8a11.89,11.89,0,0,1,3,8.56V51.19a1.27,1.27,0,0,0,.26.88.88.88,0,0,0,.67.29v1.17a3.27,3.27,0,0,1-.52,0,1.6,1.6,0,0,1-.3-.08,1.9,1.9,0,0,1-.94-.86,2.74,2.74,0,0,1-.35-1.37V48.37a14.1,14.1,0,0,1-5.51,4.22,17.81,17.81,0,0,1-7.39,1.53,10.1,10.1,0,0,1-5-1.23,9.5,9.5,0,0,1-3.55-3.37A8.82,8.82,0,0,1,35.39,44.8Zm21.87,2.75a4.6,4.6,0,0,0,.68-1.26,3.81,3.81,0,0,0,.2-1.14v-6a23.63,23.63,0,0,0-4.89-1.38,31.53,31.53,0,0,0-5.31-.44,14.82,14.82,0,0,0-8.24,2.05,6.27,6.27,0,0,0-3.14,5.46,7.63,7.63,0,0,0,1.15,4.13,8.18,8.18,0,0,0,3.13,2.93A9,9,0,0,0,45.24,53a17.28,17.28,0,0,0,7.19-1.47A10.86,10.86,0,0,0,57.26,47.55Z" transform="translate(-8.59 -10.73)"/><path class="cls-1" d="M77.61,54.12a16.68,16.68,0,0,1-6.39-1.2A14.3,14.3,0,0,1,66,49.19l.88-.76a16.21,16.21,0,0,0,4.92,3.4A14.44,14.44,0,0,0,77.61,53a12.55,12.55,0,0,0,7.33-2,6.25,6.25,0,0,0,2.81-5.42,4.78,4.78,0,0,0-1.23-3.49,8.8,8.8,0,0,0-3.6-2c-1.59-.53-3.51-1.05-5.78-1.56-2.07-.51-3.8-1-5.19-1.49a6.73,6.73,0,0,1-3.11-2,5.83,5.83,0,0,1-1-3.69,7.74,7.74,0,0,1,1.49-4.93,8.93,8.93,0,0,1,3.93-2.78,15,15,0,0,1,5.31-.91,14.39,14.39,0,0,1,6.3,1.26A7.68,7.68,0,0,1,88.46,27l-1.06.47a6.84,6.84,0,0,0-3.63-2.76,15.65,15.65,0,0,0-5.46-.94,13.75,13.75,0,0,0-4.63.76,7.58,7.58,0,0,0-3.4,2.35A6.38,6.38,0,0,0,69,31.07a4.88,4.88,0,0,0,.88,3.11,5.86,5.86,0,0,0,2.7,1.76c1.21.43,2.75.88,4.63,1.35,2.42.55,4.52,1.11,6.27,1.7a10,10,0,0,1,4,2.32,5.55,5.55,0,0,1,1.41,4.07,7.6,7.6,0,0,1-3.11,6.36A13.13,13.13,0,0,1,77.61,54.12Z" transform="translate(-8.59 -10.73)"/><path class="cls-1" d="M120,53.53h-1.18V36.59c0-4.23-.71-7.41-2.14-9.56a7.08,7.08,0,0,0-6.3-3.23,11.78,11.78,0,0,0-5.48,1.38,14.55,14.55,0,0,0-7.36,9.12V53.53H96.37V10.73h1.18V31a14.94,14.94,0,0,1,5.36-6.07,13.4,13.4,0,0,1,7.42-2.26,9.34,9.34,0,0,1,4.19.88,7.77,7.77,0,0,1,3,2.67,12.73,12.73,0,0,1,1.85,4.37,26.22,26.22,0,0,1,.62,6Z" transform="translate(-8.59 -10.73)"/><path class="cls-1" d="M129.51,15.24V10.73h1.17v4.51Zm0,38.29V23.1h1.17V53.53Z" transform="translate(-8.59 -10.73)"/><path class="cls-1" d="M153,54.12a13.11,13.11,0,0,1-5.66-1.26,15.15,15.15,0,0,1-4.69-3.46,16.48,16.48,0,0,1-3.17-5.1,16.8,16.8,0,0,1-1.14-6.19,15.94,15.94,0,0,1,1.94-7.8,15.29,15.29,0,0,1,5.19-5.6,13.13,13.13,0,0,1,7.24-2.08A13.39,13.39,0,0,1,160,24.74a15.68,15.68,0,0,1,5.3,5.66,15.94,15.94,0,0,1,2,8V39H139.47a16.18,16.18,0,0,0,2.17,7.1,14.44,14.44,0,0,0,4.87,5A12.15,12.15,0,0,0,153,53a12.8,12.8,0,0,0,6.57-1.79,10.32,10.32,0,0,0,4.34-4.61l1.11.3a10.05,10.05,0,0,1-2.67,3.72,13.34,13.34,0,0,1-4.31,2.61A14.1,14.1,0,0,1,153,54.12Zm-13.49-16.3H166.1A16.06,16.06,0,0,0,164,30.57a13.85,13.85,0,0,0-4.75-4.95,12.64,12.64,0,0,0-13.07,0,13.54,13.54,0,0,0-4.72,5A16.39,16.39,0,0,0,139.47,37.82Z" transform="translate(-8.59 -10.73)"/><path class="cls-1" d="M187.32,24.27a12,12,0,0,0-7.44,2.85,13.88,13.88,0,0,0-4.4,7.18V53.53h-1.17V23.1h1.17V31a15,15,0,0,1,4.25-5.31,11.18,11.18,0,0,1,5.66-2.43l1.08-.09.85,0Z" transform="translate(-8.59 -10.73)"/><path class="cls-1" d="M202.1,54.12a16.68,16.68,0,0,1-6.39-1.2,14.3,14.3,0,0,1-5.22-3.73l.88-.76a16.21,16.21,0,0,0,4.92,3.4A14.44,14.44,0,0,0,202.1,53a12.55,12.55,0,0,0,7.33-2,6.25,6.25,0,0,0,2.81-5.42A4.78,4.78,0,0,0,211,42.07a8.8,8.8,0,0,0-3.6-2c-1.59-.53-3.51-1.05-5.78-1.56-2.07-.51-3.8-1-5.19-1.49a6.73,6.73,0,0,1-3.11-2,5.83,5.83,0,0,1-1-3.69,7.74,7.74,0,0,1,1.49-4.93,8.93,8.93,0,0,1,3.93-2.78,15,15,0,0,1,5.31-.91,14.39,14.39,0,0,1,6.3,1.26A7.68,7.68,0,0,1,213,27l-1.06.47a6.84,6.84,0,0,0-3.63-2.76,15.65,15.65,0,0,0-5.46-.94,13.75,13.75,0,0,0-4.63.76,7.58,7.58,0,0,0-3.4,2.35,6.38,6.38,0,0,0-1.29,4.16,4.88,4.88,0,0,0,.88,3.11,5.86,5.86,0,0,0,2.7,1.76c1.21.43,2.75.88,4.63,1.35,2.42.55,4.52,1.11,6.27,1.7a10,10,0,0,1,4,2.32,5.55,5.55,0,0,1,1.41,4.07,7.6,7.6,0,0,1-3.11,6.36A13.13,13.13,0,0,1,202.1,54.12Z" transform="translate(-8.59 -10.73)"/></svg>