<svg id="Layer_1" data-name="Layer 1" xmlns="http://www.w3.org/2000/svg" viewBox="0 0 74.44 41.13"><defs><style>.cls-1{fill:#e71c7f;}.cls-2{fill:#1d1d1b;}.cls-3{fill:none;stroke:#1d1d1b;stroke-miterlimit:10;stroke-width:0.25px;}</style></defs><path class="cls-1" d="M33.75,36.57s-11.89-.73-15.35-8S13,22.63,13,22.63l-2.6.27s-.93,1-.45,4.82,2.76,10,4.88,11.62,6.17,4,10.47,4.31,6.15-1.13,6.15-1.13l1.85-.88A9.18,9.18,0,0,0,33.75,36.57Z" transform="translate(-2.98 -4.18)"/><path class="cls-2" d="M24.41,45.32c-1.17,0-3.67-.39-8-2.77-5.48-3-12.63-14.26-13.14-17.08a3.38,3.38,0,0,1,.32-2.67,1.26,1.26,0,0,1,.86-.5v.25a1,1,0,0,0-.68.41,3.17,3.17,0,0,0-.27,2.47c.5,2.79,7.58,13.92,13,16.9C22.7,45.72,25.13,45,25.15,45s6.66-2.32,8-3.53c.72-.68.77-3.44.81-5.66,0-.51,0-1,0-1.46h.25c0,.46,0,.95,0,1.46,0,2.5-.09,5.08-.89,5.83-1.34,1.25-7.78,3.49-8,3.59A2.82,2.82,0,0,1,24.41,45.32Z" transform="translate(-2.98 -4.18)"/><path d="M29,18.75s13.15-3.17,19.46-1.66" transform="translate(-2.98 -4.18)"/><path class="cls-2" d="M29.05,18.87,29,18.63c.13,0,13.25-3.17,19.52-1.66l-.06.24C42.25,15.72,29.19,18.84,29.05,18.87Z" transform="translate(-2.98 -4.18)"/><path class="cls-2" d="M41.71,39.05,41,39l-.74,0c-2,0-4.5-2.54-6.19-4.63l-.05,0-.67-1c-.75-1-1.24-1.75-1.31-1.85l.21-.14,1.17,1.65c1.6,2.14,4.55,5.6,6.84,5.63l.75,0c2.12.09,3.18.13,7.7-5.41l.19.16C44.81,38.49,43.47,39.05,41.71,39.05Z" transform="translate(-2.98 -4.18)"/><path class="cls-1" d="M48.57,34a10.91,10.91,0,0,0,.93,6.46,32,32,0,0,1,5-2.25c1.63-.4,3.62-1.17,4.94-1a7.13,7.13,0,0,1,4.1,2.26,51.08,51.08,0,0,0,4.08,3.94,1.87,1.87,0,0,0,1.61,0,10.85,10.85,0,0,0,4.94-5.16c1.33-3.07,3.31-8,3-13.31s-3-5.5-3-5.5A5.17,5.17,0,0,0,70,19a14.42,14.42,0,0,0-4.23,1.67Z" transform="translate(-2.98 -4.18)"/><path class="cls-1" d="M10.63,22.53l11.24-2.74a12.14,12.14,0,0,0,6.06,3.11c3.35.44,9.31,1.9,20.59-1.56s13.17-3.06,13.17-3.06l6.65.27L66,20.34,51.41,26l-14.66,3.3a22.86,22.86,0,0,1-13.06-1.62c-6.47-3-8.06-4.5-8.06-4.5Z" transform="translate(-2.98 -4.18)"/><path class="cls-1" d="M53.35,16.56A23.31,23.31,0,0,0,52.15,10C51.09,7.5,42.22,6.53,40,6.57A14,14,0,0,0,31.54,9,9.58,9.58,0,0,0,30,12.66a35.17,35.17,0,0,0-.48,3.49Z" transform="translate(-2.98 -4.18)"/><path class="cls-3" d="M50.18,41.46" transform="translate(-2.98 -4.18)"/><path class="cls-2" d="M74.35,19a3.74,3.74,0,0,0-1.52-.37h0l-1.25,0c-.34,0-.62,0-.77,0h0c-4.93-.24-16.13-1-17.42-1.06a20.09,20.09,0,0,0-1.54-8.19c-1.7-3.49-7.53-6.21-15.38-4.64-2.68.53-6.11,2.78-7.25,10.42a26.67,26.67,0,0,0-.29,3.58c-1,.16-8.89,1.36-11.47,2.05a58.54,58.54,0,0,1-9.31,1.7,15.26,15.26,0,0,1-3.58-.12v0h0l-.06,0a1.42,1.42,0,0,0-1,.51,3,3,0,0,0-.35,2.56c.51,2.82,7.66,14.07,13.14,17.08,4.33,2.38,6.82,2.77,8,2.77A2.82,2.82,0,0,0,25,45.1c.28-.1,6.72-2.34,8.05-3.59.93-.87,1.11-3.9,1.22-6.93v0l-1.58-2.1a2.86,2.86,0,0,0-.74-.91,67.82,67.82,0,0,0,8-2.12c3.57-1.08,6.94-2.11,8.76-2.11h.56a34.76,34.76,0,0,0,3.53-.1l-.5,1.44-.64,1.55a.29.29,0,0,1-.09.15,1.18,1.18,0,0,1-.27.11,1.66,1.66,0,0,1-.65-.1c-.08-.05-.13-.11-.14-.11l-.12-.15-.07.14-.09,0-.78,1.69-1,1.81A5.14,5.14,0,0,0,48.32,35c-.46,3.32,1.7,7.13,1.7,7.13s1.8-2.17,7-2.8S63.2,44.15,68.44,44h0a2.07,2.07,0,0,0,.22,0,2,2,0,0,0,.74-.15,4.71,4.71,0,0,0,1.54-1,11.83,11.83,0,0,0,2.48-3.23h0c0-.05.05-.1.08-.14a30.6,30.6,0,0,0,3.67-11C78.32,20.13,74.67,19.07,74.35,19Zm-44-6.74C32.86,4,48.93,7.81,51.86,10.77c.85.86,1.2,5.38,1.2,5.38-13.44-6.19-23.34-.26-23.34-.26A11.93,11.93,0,0,1,30.32,12.25Zm3.1,25.06h.33s.13,2.95-.72,4.14c-.57.79-3.45,1.79-3.45,1.79l-.53.09-.79,0c-19.7-.13-17.83-20.18-17.83-20.18s2.92-.93,4.45.53C14.88,23.72,18.56,38.91,33.42,37.31Zm2.26-8.39c-6.93.71-18.12-5.15-20.25-6a8.17,8.17,0,0,0-4.38-.4l4.39-.91,2.87-.71,3.14-.72S24.21,24,34.62,24.47c6.66.29,20.78-4.41,26.74-5.92l6.29.27L54.54,24.38S42.62,28.21,35.68,28.92Zm39.67,5.79c-1.12,3-3.7,8.49-7.09,8.76,0,0-1-.22-3.49-3.64-2.88-3.92-6.25-3.08-6.25-3.08s-6.15,1-9.06,3.39l-.31-.86a11,11,0,0,1-.49-4.93,24.27,24.27,0,0,1,6.07-2.54c2.5-.45,3.3,2.27,5.27,3.26s5.62-3.71,6.69-7.42a12,12,0,0,0-.18-7s4.59-3.07,8.35-.83S76.5,31.65,75.35,34.71Z" transform="translate(-2.98 -4.18)"/><path class="cls-1" d="M41.18,32s.53-.66,1.08-.49a21.45,21.45,0,0,1,2.89,2.31s-1.76,1.93-2.53,2.07A5.53,5.53,0,0,1,38,34.77c-.73-.66-.92-.85-.92-.85l1.61-1.33s1-1.48,2.17-1C41.28,31.73,41.18,32,41.18,32Z" transform="translate(-2.98 -4.18)"/><path class="cls-2" d="M41.35,36.11H41A4.19,4.19,0,0,1,40,36a6.41,6.41,0,0,1-2.9-2.05l-.07-.09.08-.07s1.65-1.54,2.64-2.28a1.09,1.09,0,0,1,1.35.15l.05.06.06-.06a1.07,1.07,0,0,1,1.35-.14c1,.74,2.64,2.27,2.66,2.29l.08.08-.07.09a6.45,6.45,0,0,1-2.9,2,4.12,4.12,0,0,1-1,.12Zm-4-2.23a6.31,6.31,0,0,0,2.7,1.87,4.24,4.24,0,0,0,.94.11h.32a3.57,3.57,0,0,0,.93-.11A6.23,6.23,0,0,0,45,33.9c-.35-.32-1.69-1.56-2.55-2.19a.85.85,0,0,0-1,.12l-.25.24-.22-.25a.86.86,0,0,0-1-.12C39.07,32.33,37.74,33.55,37.39,33.88Z" transform="translate(-2.98 -4.18)"/><path class="cls-2" d="M45.12,34c-1.18-.11-3-.27-3.3-.27h0a.53.53,0,0,0-.26.08l-.25.12a1,1,0,0,1-.91-.22,9.61,9.61,0,0,0-2.93.17l0-.24c.45-.07,2.72-.41,3.11-.14a.77.77,0,0,0,.69.19.92.92,0,0,0,.2-.1.81.81,0,0,1,.37-.11c.27,0,3.07.24,3.39.27Z" transform="translate(-2.98 -4.18)"/><path class="cls-2" d="M50.34,30.39l-.07,0a.12.12,0,0,1,0-.17,7.9,7.9,0,0,0,.93-2.36c0-.07.05-.11.13-.12a.12.12,0,0,1,.12.12,8.24,8.24,0,0,1-1,2.49A.14.14,0,0,1,50.34,30.39Z" transform="translate(-2.98 -4.18)"/></svg>