<svg width="94" height="94" viewBox="0 0 94 94" fill="none" xmlns="http://www.w3.org/2000/svg">
<rect width="94" height="94" fill="white"/>
<path d="M65.5915 27.3027C70.9982 33.2638 79.732 38.347 85 40.1954C85 41.9052 82.7819 45.8794 79.3161 51.286C74.871 58.2203 61.8484 73.4672 43.9649 71.3877C29.658 69.7241 15.3604 49.8997 10 40.1954C10.9242 40.1954 13.7431 39.6132 17.6248 37.2842C22.4769 34.3729 28.854 23.2823 34.8152 22.1733C39.5841 21.286 45.2126 24.0217 47.4307 25.5004C51.451 22.4505 60.0253 21.1656 65.5915 27.3027Z" stroke="black" stroke-width="5" stroke-linecap="round" stroke-linejoin="round"/>
<path d="M47.4307 43.9385C56.0813 43.7167 67.1164 42.2749 71.5527 41.5817C66.1922 45.6945 53.3641 53.8091 44.9353 53.3655C36.5065 52.9219 27.4676 45.3248 24.0018 41.5817C34.3992 39.225 36.6174 44.2158 47.4307 43.9385Z" stroke="black" stroke-width="5" stroke-linecap="round" stroke-linejoin="round"/>
</svg>
