<svg width="94" height="94" viewBox="0 0 94 94" fill="none" xmlns="http://www.w3.org/2000/svg">
<rect width="94" height="94" fill="white"/>
<path fill-rule="evenodd" clip-rule="evenodd" d="M45.6967 27.7218C47.7179 26.4975 50.3602 25.5007 53.1637 25.2802C56.6826 25.0034 60.5612 25.9568 63.6096 29.3182C65.855 31.7942 69.207 34.4403 72.632 36.6908C76.0671 38.948 79.3864 40.6834 81.5021 41.4259C82.1125 41.6401 82.6004 42.1078 82.8403 42.7086C83.0802 43.3094 83.0486 43.9845 82.7536 44.5603L80.7607 43.5391C82.7536 44.5603 82.7536 44.5603 82.7536 44.5603L82.7432 44.5807L82.7147 44.636C82.7016 44.6615 82.6852 44.6932 82.6657 44.7309C82.6483 44.7646 82.6284 44.803 82.606 44.846C82.5114 45.0282 82.3734 45.2927 82.1984 45.6247C81.8485 46.2885 81.3499 47.2233 80.7531 48.3112C79.5636 50.4798 78.4188 52.0775 76.8266 54.5616C74.6958 57.8861 69.3541 63.2225 63.6096 67.1029C57.8454 70.9965 51.6052 73.0398 42.9204 72.0298C35.6879 71.1887 28.6469 66.1749 23.1695 60.3843C17.6131 54.5102 12.7537 49.1022 10.2792 44.6219C9.896 43.9282 9.90799 43.0836 10.3107 42.401C10.7134 41.7185 11.4468 41.2996 12.2393 41.2996C12.2451 41.2994 12.2853 41.298 12.3648 41.2886C12.4534 41.2781 12.5744 41.2596 12.7275 41.229C13.0342 41.1676 13.4454 41.0626 13.9503 40.8937C14.9588 40.5563 16.3117 39.9739 17.9167 39.0108C18.7151 38.5317 19.7065 37.6237 20.9229 36.3248C21.6638 35.5335 22.3968 34.6998 23.1695 33.821C23.6689 33.253 24.1848 32.6662 24.7302 32.0599C26.0639 30.5769 27.507 29.0555 28.9982 27.8312C30.463 26.6286 32.1732 25.5435 34.0568 25.193C36.7173 24.698 39.4603 25.2275 41.6792 25.9649C43.2126 26.4746 44.6029 27.1195 45.6967 27.7218ZM77.635 44.667C75.3919 43.6259 73.0475 41.481 70.4601 39.7808C66.8705 37.4221 63.6526 35.1027 61.0552 32.2386C59.1179 30.1023 55.5905 28.3924 53.1637 28.5832C50.6628 28.7799 48.6158 31.0242 47.1195 32.1594C46.3595 32.736 45.3177 32.7678 44.524 32.2386C43.6878 31.6811 41.8493 29.1958 40.0061 28.5832C38.1398 27.9629 36.6908 28.2835 35.0798 28.5832C34.0568 28.7736 32.2928 29.8016 31.0491 30.8227C29.8317 31.8222 29.6669 32.37 28.362 33.821C27.8932 34.3422 27.1043 36.1297 26.6133 36.6876C25.7957 37.6167 24.9668 38.5587 24.1918 39.3864C22.9479 40.7148 21.5955 42.0267 20.2209 42.8515C18.5305 43.8659 16.9976 44.5667 15.7007 45.0276C18.1621 49.0452 21.801 54.1567 26.0722 58.6722C31.4021 64.3069 37.3383 68.6076 42.9204 69.2568C50.254 70.1096 56.6865 67.6725 61.8368 64.1935C67.0068 60.7013 70.755 56.2403 72.6056 53.353C74.1178 50.9937 75.6573 48.2888 76.8266 46.157C77.1231 45.6164 77.3948 45.1146 77.635 44.667Z" fill="black"/>
<path d="M82.7536 44.5603C83.0486 43.9845 83.0802 43.3094 82.8403 42.7086C82.6004 42.1078 82.1125 41.6401 81.5021 41.4259C79.3864 40.6834 76.0671 38.948 72.632 36.6908C69.207 34.4403 65.855 31.7942 63.6096 29.3182C60.5612 25.9568 56.6826 25.0034 53.1637 25.2802C50.3602 25.5007 47.7179 26.4975 45.6967 27.7218C44.6029 27.1195 43.2126 26.4746 41.6792 25.9649C39.4603 25.2275 36.7173 24.698 34.0568 25.193C32.1732 25.5435 30.463 26.6286 28.9982 27.8312C27.507 29.0555 26.0639 30.5769 24.7302 32.0599C24.1848 32.6662 23.6689 33.253 23.1695 33.821C22.3968 34.6998 21.6638 35.5335 20.9229 36.3248C19.7065 37.6237 18.7151 38.5317 17.9167 39.0108C16.3117 39.9739 14.9588 40.5563 13.9503 40.8937C13.4454 41.0626 13.0342 41.1676 12.7275 41.229C12.5744 41.2596 12.4534 41.2781 12.3648 41.2886C12.2853 41.298 12.2451 41.2994 12.2393 41.2996C11.4468 41.2996 10.7134 41.7185 10.3107 42.401C9.90799 43.0836 9.896 43.9282 10.2792 44.6219C12.7537 49.1022 17.6131 54.5102 23.1695 60.3843C28.6469 66.1749 35.6879 71.1887 42.9204 72.0298C51.6052 73.0398 57.8454 70.9965 63.6096 67.1029C69.3541 63.2225 74.6958 57.8861 76.8266 54.5616C78.4188 52.0775 79.5636 50.4798 80.7531 48.3112C81.3499 47.2233 81.8485 46.2885 82.1984 45.6247C82.3734 45.2927 82.5114 45.0282 82.606 44.846C82.6284 44.803 82.6483 44.7646 82.6657 44.7309C82.6852 44.6932 82.7016 44.6615 82.7147 44.636L82.7432 44.5807L82.7536 44.5603ZM82.7536 44.5603L80.7607 43.5391C82.7536 44.5603 82.7536 44.5603 82.7536 44.5603ZM70.4601 39.7808C73.0475 41.481 75.3919 43.6259 77.635 44.667C77.3948 45.1146 77.1231 45.6164 76.8266 46.157C75.6573 48.2888 74.1178 50.9937 72.6056 53.353C70.755 56.2403 67.0068 60.7013 61.8368 64.1935C56.6865 67.6725 50.254 70.1096 42.9204 69.2568C37.3383 68.6076 31.4021 64.3069 26.0722 58.6722C21.801 54.1567 18.1621 49.0452 15.7007 45.0276C16.9976 44.5667 18.5305 43.8659 20.2209 42.8515C21.5955 42.0267 22.9479 40.7148 24.1918 39.3864C24.9668 38.5587 25.7957 37.6167 26.6133 36.6876C27.1043 36.1297 27.8932 34.3422 28.362 33.821C29.6669 32.37 29.8317 31.8222 31.0491 30.8227C32.2928 29.8016 34.0568 28.7736 35.0798 28.5832C36.6908 28.2835 38.1398 27.9629 40.0061 28.5832C41.8493 29.1958 43.6878 31.6811 44.524 32.2386C45.3177 32.7678 46.3595 32.736 47.1195 32.1594C48.6158 31.0242 50.6628 28.7799 53.1637 28.5832C55.5905 28.3924 59.1179 30.1023 61.0552 32.2386C63.6526 35.1027 66.8705 37.4221 70.4601 39.7808Z" stroke="black" stroke-width="3" stroke-linecap="round" stroke-linejoin="round"/>
<path d="M44.8124 49.9114C45.0777 50.1935 45.596 50.3532 46.1304 50.3174C46.6647 50.2817 47.1124 50.0573 47.2687 49.747C47.5868 49.1153 48.0676 48.7105 48.6308 48.4729C49.1838 48.2395 49.9618 48.1056 51.0824 48.1789C51.2495 48.1899 51.4127 48.1819 51.5663 48.1577C55.8774 48.5254 61.4555 48.4209 65.1577 48.3516C65.6406 48.3426 66.0916 48.3342 66.5037 48.3274C67.2461 48.3153 67.8316 47.9424 67.8116 47.4945C67.7915 47.0466 67.1734 46.6933 66.431 46.7054C66.0042 46.7124 65.5442 46.7209 65.0575 46.7299C61.296 46.7994 55.8095 47.3103 51.7423 46.9564C51.5574 46.9403 51.3759 46.9478 51.206 46.975C49.5967 46.8743 48.147 47.0558 46.9641 47.555C46.5404 47.7338 46.1698 47.9454 45.8483 48.1837C45.1387 47.5911 44.0901 46.9564 42.2628 46.9564C42.1029 47.3682 41.9956 46.9549 41.9617 46.9564C41.6164 47.3328 41.577 46.9377 41.3413 46.9758C37.2439 47.638 31.8473 47.4435 27.3651 46.7318C26.6469 46.6178 25.9115 46.8766 25.7225 47.31C25.5335 47.7433 25.9625 48.187 26.6807 48.301C31.6423 49.0888 37.5477 48.8554 41.9617 48.1633C42.0585 48.1766 42.1593 48.1837 42.2628 48.1837C42.9364 48.1837 43.4013 48.3867 43.8163 48.7412C44.0285 48.9225 44.203 49.1255 44.3595 49.3288C44.3928 49.3722 44.4325 49.4259 44.4754 49.484C44.5836 49.6306 44.7124 49.8049 44.8124 49.9114Z" fill="black"/>
</svg>
