<svg width="21" height="20" viewBox="0 0 21 20" fill="none" xmlns="http://www.w3.org/2000/svg">
<path d="M17.7827 2.53972C17.3384 2.05158 16.8108 1.66436 16.2302 1.40017C15.6495 1.13598 15.0271 1 14.3986 1C13.77 1 13.1477 1.13598 12.567 1.40017C11.9863 1.66436 11.4588 2.05158 11.0144 2.53972L10.0923 3.5523L9.17009 2.53972C8.27255 1.55418 7.05524 1.00051 5.78593 1.00051C4.51662 1.00051 3.2993 1.55418 2.40177 2.53972C1.50423 3.52525 1 4.86193 1 6.25569C1 7.64945 1.50423 8.98612 2.40177 9.97166L3.32393 10.9842L10.0923 18.4162L16.8606 10.9842L17.7827 9.97166C18.2273 9.48376 18.5799 8.90446 18.8205 8.26686C19.0611 7.62926 19.185 6.94585 19.185 6.25569C19.185 5.56552 19.0611 4.88212 18.8205 4.24452C18.5799 3.60692 18.2273 3.02762 17.7827 2.53972V2.53972Z" stroke="black" stroke-width="2" stroke-linecap="round" stroke-linejoin="round"/>
</svg>
