<svg width="60" height="85" viewBox="0 0 60 85" fill="none" xmlns="http://www.w3.org/2000/svg">
<path d="M19.8551 43.855L18.1395 29.2955C17.5096 23.95 17.643 20.1547 21.8544 19.6585C26.0657 19.1623 27.1965 26.5168 27.3954 28.2049L28.7546 39.7399C28.3402 36.2231 29.4869 32.879 32.5572 32.5172C37.2228 31.9674 37.2528 35.8861 37.6779 37.1196L38.1088 40.7771C38.4167 39.5047 37.0293 36.1264 41.6166 35.5858C45.3798 35.1424 46.3527 40.1622 46.5185 41.569L46.8414 44.3091C46.7515 41.2926 47.3218 38.6218 49.8738 38.3211C54.6146 37.7625 55.0539 41.4903 55.7086 47.0468C56.3634 52.6033 56.6082 56.2114 56.4542 61.7919C56.2569 68.9464 54.4361 77.0394 42.7583 80.2355C32.0321 83.1711 27.736 81.5819 21.905 74.2065C16.0769 66.8349 17.413 68.4603 10.4341 58.4432C7.29856 53.2503 4.00864 50.159 6.69329 47.6879C10.2472 44.4166 13.2477 47.6287 15.9039 50.0969C18.5601 52.5651 16.8463 50.699 21.1314 54.6867L19.8551 43.855Z" fill="white"/>
<path d="M21.1314 54.6867L19.4283 56.5169C20.1957 57.231 21.3271 57.3906 22.2621 56.9164C23.197 56.4423 23.7369 55.4353 23.6142 54.3942L21.1314 54.6867ZM27.4901 50.3719C27.6517 51.7431 28.8943 52.7237 30.2655 52.5621C31.6367 52.4005 32.6174 51.158 32.4558 49.7867L27.4901 50.3719ZM37.6779 37.1196L40.1607 36.8271L40.1292 36.5596L40.0415 36.3051L37.6779 37.1196ZM36.7615 50.7056C36.923 52.0769 38.1656 53.0575 39.5368 52.8959C40.9081 52.7343 41.8887 51.4917 41.7271 50.1205L36.7615 50.7056ZM45.2125 51.8492C45.3741 53.2204 46.6167 54.201 47.9879 54.0395C49.3592 53.8779 50.3398 52.6353 50.1782 51.2641L45.2125 51.8492ZM56.4542 61.7919L53.9552 61.723L56.4542 61.7919ZM42.7583 80.2355L42.0984 77.8241L42.7583 80.2355ZM21.905 74.2065L23.8661 72.656L21.905 74.2065ZM10.4341 58.4432L8.29399 59.7354C8.32212 59.782 8.35175 59.8276 8.38286 59.8723L10.4341 58.4432ZM6.69329 47.6879L8.38639 49.5273L8.38639 49.5273L6.69329 47.6879ZM15.9039 50.0969L17.6057 48.2655L15.9039 50.0969ZM15.6567 29.5881L17.3722 44.1476L22.3379 43.5625L20.6223 29.003L15.6567 29.5881ZM17.3722 44.1476L18.6486 54.9793L23.6142 54.3942L22.3379 43.5625L17.3722 44.1476ZM20.6223 29.003C20.3023 26.2874 20.2603 24.4796 20.5848 23.3471C20.7256 22.8554 20.8984 22.6375 21.0342 22.5213C21.1696 22.4054 21.4657 22.2216 22.1469 22.1413L21.5618 17.1757C20.1373 17.3435 18.8375 17.8202 17.7831 18.7225C16.7292 19.6245 16.1183 20.7826 15.7781 21.97C15.1405 24.1956 15.3468 26.9581 15.6567 29.5881L20.6223 29.003ZM22.1469 22.1413C22.3591 22.1163 22.5176 22.1487 22.775 22.3859C23.1035 22.6885 23.4745 23.2461 23.8243 24.0798C24.5202 25.7384 24.8209 27.7188 24.9126 28.4974L29.8783 27.9123C29.7711 27.0029 29.4069 24.462 28.4349 22.1453C27.9507 20.9914 27.2369 19.698 26.1627 18.7084C25.0174 17.6533 23.4553 16.9526 21.5618 17.1757L22.1469 22.1413ZM24.9126 28.4974L26.2718 40.0325L31.2375 39.4474L29.8783 27.9123L24.9126 28.4974ZM26.2718 40.0325L27.4901 50.3719L32.4558 49.7867L31.2375 39.4474L26.2718 40.0325ZM31.2375 39.4474C31.0667 37.9984 31.2486 36.7842 31.6131 36.0058C31.9351 35.3185 32.3258 35.0618 32.8497 35L32.2646 30.0344C29.7182 30.3344 28.0006 31.9307 27.0852 33.8851C26.2124 35.7484 26.0282 37.9647 26.2718 40.0325L31.2375 39.4474ZM32.8497 35C33.6743 34.9029 34.0629 35.0287 34.2121 35.098C34.3454 35.16 34.4525 35.2515 34.5682 35.4429C34.7034 35.6666 34.8198 35.9797 34.9318 36.4195C34.9885 36.6424 35.0311 36.8414 35.0886 37.0959C35.1358 37.3051 35.2098 37.631 35.3143 37.9342L40.0415 36.3051C40.0452 36.3159 40.039 36.2993 40.0232 36.2374C40.0078 36.1774 39.9898 36.101 39.9657 35.9944C39.922 35.8007 39.856 35.4955 39.7773 35.186C39.6182 34.5613 39.3558 33.6978 38.8472 32.8564C38.3191 31.9827 37.5174 31.1206 36.3195 30.5638C35.1376 30.0145 33.7729 29.8567 32.2646 30.0344L32.8497 35ZM35.1951 37.4122L35.626 41.0696L40.5917 40.4845L40.1607 36.8271L35.1951 37.4122ZM35.626 41.0696L36.7615 50.7056L41.7271 50.1205L40.5917 40.4845L35.626 41.0696ZM40.5387 41.365C40.648 40.9136 40.6592 40.4844 40.6598 40.2165C40.6604 39.9477 40.6464 39.6228 40.6406 39.4303C40.6259 38.9408 40.6414 38.6827 40.6847 38.5075C40.7115 38.3993 40.7244 38.4093 40.7308 38.4042C40.7764 38.368 41.0597 38.1687 41.9092 38.0686L41.324 33.103C39.8799 33.2732 38.6163 33.6989 37.6223 34.4879C36.589 35.3081 36.0694 36.3435 35.8311 37.3066C35.6094 38.2026 35.6273 39.0614 35.6428 39.58C35.6522 39.8917 35.6602 40.0436 35.6598 40.2052C35.6594 40.3678 35.6467 40.3225 35.679 40.1891L40.5387 41.365ZM41.9092 38.0686C42.2342 38.0303 42.3935 38.1013 42.5262 38.1929C42.7137 38.3225 42.9587 38.5881 43.2112 39.0611C43.7323 40.0369 43.968 41.2873 44.0357 41.8615L49.0013 41.2764C48.9032 40.4439 48.5696 38.481 47.6219 36.7061C46.6568 34.8985 44.6744 32.7082 41.324 33.103L41.9092 38.0686ZM44.0357 41.8615L44.3585 44.6016L49.3242 44.0165L49.0013 41.2764L44.0357 41.8615ZM44.3585 44.6016L45.0634 50.5832L50.029 49.998L49.3242 44.0165L44.3585 44.6016ZM45.0634 50.5832L45.2125 51.8492L50.1782 51.2641L50.029 49.998L45.0634 50.5832ZM50.1782 51.2641C49.9273 49.1349 49.4135 46.6949 49.3403 44.2346L44.3425 44.3835C44.4233 47.0979 45.0349 50.3412 45.2125 51.8492L50.1782 51.2641ZM49.3403 44.2346C49.2984 42.8305 49.4323 41.8405 49.6751 41.257C49.7828 40.9981 49.8758 40.9092 49.9039 40.886C49.9151 40.8767 49.968 40.8273 50.1663 40.8039L49.5812 35.8383C47.245 36.1136 45.7885 37.5823 45.0587 39.3363C44.4008 40.9175 44.2945 42.7711 44.3425 44.3835L49.3403 44.2346ZM50.1663 40.8039C51.0401 40.701 51.4282 40.8302 51.5787 40.9051C51.7005 40.9658 51.8776 41.0922 52.0908 41.5156C52.3255 41.9813 52.5378 42.6798 52.729 43.7149C52.9185 44.7405 53.0595 45.9279 53.2258 47.3394L58.1915 46.7542C58.0304 45.3875 57.871 44.0251 57.6458 42.8065C57.4224 41.5973 57.1058 40.3569 56.5562 39.2659C55.9852 38.1326 55.1226 37.0846 53.8082 36.4297C52.5225 35.7892 51.0779 35.6619 49.5812 35.8383L50.1663 40.8039ZM53.2258 47.3394C53.8702 52.8079 54.105 56.2916 53.9552 61.723L58.9533 61.8609C59.1114 56.1313 58.8566 52.3988 58.1915 46.7542L53.2258 47.3394ZM53.9552 61.723C53.8604 65.16 53.3741 68.4643 51.7533 71.2362C50.1892 73.9111 47.3995 76.3733 42.0984 77.8241L43.4183 82.6468C49.7949 80.9016 53.7545 77.7192 56.0695 73.76C58.3279 69.8978 58.8507 65.5783 58.9533 61.8609L53.9552 61.723ZM42.0984 77.8241C36.8523 79.26 33.6676 79.4362 31.2207 78.695C28.8203 77.9679 26.6848 76.2213 23.8661 72.656L19.9438 75.757C22.9561 79.5671 25.8843 82.3029 29.7712 83.4803C33.6117 84.6436 37.9382 84.1466 43.4183 82.6468L42.0984 77.8241ZM23.8661 72.656C18.0944 65.3557 19.4764 67.0486 12.4854 57.0141L8.38286 59.8723C15.3497 69.872 14.0594 68.3141 19.9438 75.757L23.8661 72.656ZM12.5742 57.1509C11.7534 55.7916 10.9208 54.5674 10.2279 53.5304C9.50906 52.4547 8.97153 51.6246 8.61023 50.913C8.23983 50.1835 8.20051 49.8501 8.20329 49.7506C8.20375 49.7341 8.20532 49.7305 8.20422 49.7351C8.20303 49.7401 8.20168 49.7423 8.20342 49.7388C8.2055 49.7345 8.24106 49.6611 8.38639 49.5273L5.0002 45.8485C3.90048 46.8607 3.24666 48.131 3.20525 49.6107C3.16782 50.9481 3.64359 52.1754 4.15202 53.1767C4.66957 54.196 5.37464 55.2668 6.07063 56.3084C6.79257 57.3888 7.54703 58.4983 8.29399 59.7354L12.5742 57.1509ZM8.38639 49.5273C8.99013 48.9716 9.39831 48.8433 9.62009 48.8108C9.84626 48.7778 10.1442 48.8059 10.5899 49.0111C11.6558 49.5017 12.7077 50.5396 14.2021 51.9283L17.6057 48.2655C16.4439 47.186 14.6675 45.3838 12.6806 44.4692C11.6 43.9717 10.3154 43.6559 8.8964 43.8635C7.47304 44.0717 6.17343 44.7686 5.0002 45.8485L8.38639 49.5273ZM14.2021 51.9283C15.5998 53.2271 15.896 53.4264 16.3752 53.7979C16.7203 54.0654 17.2946 54.5312 19.4283 56.5169L22.8345 52.8566C20.6831 50.8545 19.9717 50.2595 19.4384 49.8461C19.0392 49.5366 18.8642 49.435 17.6057 48.2655L14.2021 51.9283Z" fill="black"/>
<path d="M13.6679 14.9864L6.31909 9.58887" stroke="black" stroke-width="4" stroke-linecap="round"/>
<path d="M35.6883 22.4131L30.5442 18.6348" stroke="black" stroke-width="4" stroke-linecap="round"/>
<path d="M12.337 20.7799L8.21191 25.6504" stroke="black" stroke-width="4" stroke-linecap="round"/>
<path d="M20.9866 11.8684L20.0476 3.89941" stroke="black" stroke-width="4" stroke-linecap="round"/>
<path d="M28.8959 13.1923L34.7888 6.23437" stroke="black" stroke-width="4" stroke-linecap="round"/>
</svg>
