<svg width="73" height="64" viewBox="0 0 73 64" fill="none" xmlns="http://www.w3.org/2000/svg">
<path fill-rule="evenodd" clip-rule="evenodd" d="M19.9098 28.469C19.4036 29.4045 19.0634 30.8233 19.1493 32.4937L14.7454 32.7201C14.6219 30.3195 15.0859 28.0015 16.0687 26.1855C17.0413 24.388 18.7006 22.8176 20.9669 22.701C23.057 22.5936 25.1587 23.7733 26.666 25.3177C28.228 26.9181 29.4891 29.2382 29.6288 31.9548L25.2248 32.1812C25.1552 30.8267 24.5102 29.5495 23.5862 28.6027C22.6075 27.6 21.643 27.2829 21.2037 27.3055C20.9405 27.3191 20.4261 27.5149 19.9098 28.469ZM41.2827 27.5066C40.6485 28.5032 40.2112 29.8956 40.2889 31.4066L35.885 31.633C35.7533 29.0729 36.4815 26.71 37.6073 24.9411C38.668 23.2744 40.386 21.7024 42.4678 21.5954C44.5435 21.4886 46.4228 22.8682 47.6598 24.4142C48.9729 26.0554 49.9563 28.3333 50.0885 30.9026L45.6845 31.1291C45.6073 29.6273 45.0247 28.2904 44.2821 27.3623C43.4633 26.3391 42.7972 26.1951 42.7046 26.1998C42.6183 26.2043 41.982 26.4078 41.2827 27.5066ZM23.4959 16.5527C23.2515 18.7864 21.4997 20.5022 19.3509 20.6127L12.7719 20.9511C8.68046 21.1615 5.43505 24.6136 5.30619 28.9013L4.74781 47.4812C4.71094 48.7078 4.93596 49.9288 5.40643 51.0554L6.49952 53.673C7.8194 56.8336 10.8706 58.8136 14.1549 58.6447L56.1154 56.4869C58.9736 56.3399 60.7108 56.2506 61.9385 55.8047C62.4329 55.6252 62.5788 55.4691 62.6106 55.432L62.6117 55.4308C62.628 55.4125 62.7703 55.2529 62.8583 54.6732C63.3037 51.7395 64.0413 49.3431 65.8889 47.6542C66.5403 47.0587 67.3294 46.5994 67.5446 46.4741C67.5685 46.4602 67.5853 46.4504 67.594 46.445C67.757 46.3447 67.7821 46.3198 67.7975 46.3018C67.7975 46.3002 67.7975 46.2985 67.7975 46.2968C67.7974 46.0776 67.766 45.6919 67.644 45.0067C67.5223 44.3239 67.3413 43.5047 67.0933 42.4178C66.675 40.5849 65.0216 35.6218 63.3396 30.7833C62.5243 28.4381 61.7388 26.2244 61.1567 24.5959C60.8658 23.782 60.626 23.1153 60.4592 22.6526C60.3758 22.4213 60.3107 22.241 60.2665 22.1189L60.2005 21.9369L60.1998 21.9349L60.1996 21.9345C60.1996 21.9344 60.1996 21.9344 63.4592 20.6549L60.1996 21.9345C60.1855 21.8955 60.1718 21.8562 60.1587 21.8169C59.533 19.942 58.799 19.4361 58.3093 19.2015C57.5779 18.8511 56.4763 18.7036 54.6427 18.7978L47.2777 19.1766C45.1433 19.2864 43.2339 17.7801 42.7467 15.6024C41.296 9.11791 36.8107 5.31223 32.4056 5.53876C28.0652 5.76197 24.2241 9.89734 23.4959 16.5527ZM47.0409 14.5721C45.272 6.66513 39.3715 0.563875 32.1689 0.934274C24.9228 1.3069 19.9892 8.01027 19.1141 16.0083L12.5351 16.3466C6.15465 16.6747 1.09877 22.0573 0.898072 28.7355L0.339691 47.3154C0.282267 49.2262 0.632776 51.1283 1.36574 52.8835L2.45883 55.501C4.51506 60.425 9.27022 63.5126 14.3917 63.2492L56.3128 61.0934C56.486 61.0845 56.6589 61.0758 56.8314 61.0671C61.8195 60.8167 66.4294 60.5853 67.2141 55.416C67.7845 51.6595 68.6118 51.1624 69.6351 50.5473C70.0687 50.2868 70.5375 50.005 71.0368 49.4454C72.7147 47.5647 72.3661 45.6757 71.383 41.3676C70.3998 37.0594 64.3222 20.3162 64.3222 20.3162C62.3947 14.5406 58.3809 13.9889 54.406 14.1934L47.0409 14.5721Z" fill="black"/>
</svg>
