<svg width="94" height="94" viewBox="0 0 94 94" fill="none" xmlns="http://www.w3.org/2000/svg">
<rect width="94" height="94" fill="white"/>
<path fill-rule="evenodd" clip-rule="evenodd" d="M54.0936 20.4962C56.3667 19.5084 58.8031 19 61.2637 19C63.7242 19 66.1606 19.5084 68.4338 20.4962C70.7065 21.4839 72.7714 22.9313 74.5107 24.756C76.2505 26.5801 77.6316 28.7468 78.5733 31.1303C79.5152 33.5143 80 36.0695 80 38.6501C80 41.2306 79.5152 43.7859 78.5733 46.1699C77.6316 48.5536 76.2512 50.7195 74.5112 52.5437L49.0369 77.1148C47.9115 78.2951 46.0869 78.2951 44.9616 77.1148L19.4873 52.5437C15.9738 48.8588 14 43.8612 14 38.6501C14 33.439 15.9738 28.4413 19.4873 24.7565C23.0008 21.0717 27.766 19.0016 32.7348 19.0016C37.7036 19.0016 42.4688 21.0717 45.9823 24.7565L46.9992 25.823L48.0157 24.757C49.755 22.9321 51.8206 21.484 54.0936 20.4962ZM61.2637 26.1172C59.5602 26.1172 57.8735 26.4692 56.2997 27.1531C54.726 27.8369 53.2962 28.8393 52.092 30.1028L49.0369 33.3069C47.9115 34.4872 46.0869 34.4872 44.9616 33.3069L41.907 30.1033C39.4743 27.5521 36.175 26.1188 32.7348 26.1188C29.2946 26.1188 25.9952 27.5521 23.5626 30.1033C21.13 32.6546 19.7634 35.0421 19.7634 38.6501C19.7634 42.2581 21.13 45.7183 23.5626 48.2696L46.9992 72.8491L70.4358 48.2696C71.6406 47.0066 72.5968 45.5065 73.2489 43.8561C73.901 42.2056 74.2366 40.4366 74.2366 38.6501C74.2366 36.8636 73.901 36.1673 73.2489 34.5168C72.5968 32.8664 71.6411 31.3668 70.4363 30.1038C69.2321 28.8403 67.8013 27.8369 66.2276 27.1531C64.6539 26.4692 62.9671 26.1172 61.2637 26.1172Z" fill="black"/>
</svg>
