<svg width="70" height="56" viewBox="0 0 70 56" fill="none" xmlns="http://www.w3.org/2000/svg">
<path d="M42.8787 17.7663L57.7391 17.7663C63.1952 17.7663 67 18.3429 67 22.5834C67 26.8239 59.4621 27.0863 57.7391 27.0863L45.9657 27.0863C49.5551 27.0863 52.7857 28.6164 52.7857 31.7079C52.7857 36.4058 48.8372 35.977 47.545 36.2548L43.812 36.2548C45.0563 36.7095 48.6219 35.7269 48.6219 40.346C48.6219 44.1352 43.453 44.514 42.0172 44.514L39.2205 44.514C42.2678 44.7778 44.8888 45.6567 44.8888 48.2263C44.8888 53 41.084 53 35.4126 53C29.7412 53 26.08 52.8209 20.4804 52.015C13.3014 50.9817 5.3703 48.2263 3.53803 36.2548C1.85507 25.2588 3.96453 21.1782 12.081 16.2503C20.1932 11.3249 18.3985 12.4616 29.3105 6.70292C34.9101 4.1966 38.4123 1.29103 40.5814 4.24641C43.453 8.15876 39.8635 10.7627 37.0638 13.1118C34.264 15.4609 36.3459 13.9773 31.8231 17.7663L42.8787 17.7663Z" fill="white"/>
<path d="M31.8231 17.7663L30.2177 15.8499C29.4117 16.5251 29.1144 17.6323 29.4735 18.6204C29.8327 19.6085 30.7718 20.2663 31.8231 20.2663L31.8231 17.7663ZM35.4126 24.5863C34.0319 24.5863 32.9126 25.7056 32.9126 27.0863C32.9126 28.467 34.0319 29.5863 35.4126 29.5863L35.4126 24.5863ZM47.545 36.2548L47.545 38.7548L47.8108 38.7548L48.0705 38.699L47.545 36.2548ZM33.9768 33.7548C32.5961 33.7548 31.4768 34.8741 31.4768 36.2548C31.4768 37.6355 32.5961 38.7548 33.9768 38.7548L33.9768 33.7548ZM31.8231 42.014C30.4424 42.014 29.3231 43.1333 29.3231 44.514C29.3231 45.8947 30.4424 47.014 31.8231 47.014L31.8231 42.014ZM20.4804 52.015L20.8365 49.5405L20.4804 52.015ZM3.53803 36.2548L1.06681 36.6331L3.53803 36.2548ZM12.081 16.2503L13.3785 18.3872L12.081 16.2503ZM29.3105 6.70292L28.2891 4.42106C28.2399 4.44311 28.1914 4.46674 28.1436 4.49192L29.3105 6.70292ZM40.5814 4.24641L38.5661 5.72567L38.5661 5.72567L40.5814 4.24641ZM37.0638 13.1118L38.6706 15.027L37.0638 13.1118ZM57.7391 15.2663L42.8787 15.2663L42.8787 20.2663L57.7391 20.2663L57.7391 15.2663ZM42.8787 15.2663L31.8231 15.2663L31.8231 20.2663L42.8787 20.2663L42.8787 15.2663ZM57.7391 20.2663C60.5103 20.2663 62.3476 20.4356 63.4616 20.8955C63.9484 21.0964 64.1511 21.2977 64.2525 21.4469C64.3519 21.5932 64.5 21.9039 64.5 22.5834L69.5 22.5834C69.5 21.1427 69.1725 19.791 68.388 18.6366C67.6055 17.4851 66.5159 16.7471 65.3695 16.2738C63.2171 15.3853 60.424 15.2663 57.7391 15.2663L57.7391 20.2663ZM64.5 22.5834C64.5 22.7839 64.455 22.9351 64.1802 23.1677C63.8316 23.4627 63.2194 23.7686 62.3334 24.0199C60.5726 24.5194 58.5359 24.5863 57.7391 24.5863L57.7391 29.5863C58.6654 29.5863 61.259 29.522 63.6979 28.8301C64.9118 28.4858 66.2918 27.931 67.4104 26.9842C68.6028 25.9749 69.5 24.5032 69.5 22.5834L64.5 22.5834ZM57.7391 24.5863L45.9657 24.5863L45.9657 29.5863L57.7391 29.5863L57.7391 24.5863ZM45.9657 24.5863L35.4126 24.5863L35.4126 29.5863L45.9657 29.5863L45.9657 24.5863ZM45.9657 29.5863C47.4541 29.5863 48.6667 29.9111 49.4166 30.37C50.0824 30.7776 50.2857 31.1967 50.2857 31.7079L55.2857 31.7079C55.2857 29.1275 53.8736 27.2359 52.0268 26.1055C50.2641 25.0265 48.0667 24.5863 45.9657 24.5863L45.9657 29.5863ZM50.2857 31.7079C50.2857 32.5324 50.1144 32.8988 50.0283 33.0365C49.9504 33.1613 49.8426 33.2611 49.6275 33.3575C49.3791 33.4689 49.0433 33.5489 48.5844 33.609C48.3522 33.6394 48.1454 33.6585 47.8831 33.6857C47.6665 33.7082 47.3331 33.7433 47.0195 33.8107L48.0705 38.699C48.0616 38.7009 48.0808 38.6965 48.146 38.6878C48.2092 38.6794 48.289 38.6705 48.3993 38.659C48.6004 38.6382 48.914 38.6085 49.2337 38.5666C49.8785 38.4822 50.7721 38.3237 51.6723 37.9203C52.6059 37.5019 53.566 36.8107 54.2687 35.6859C54.9634 34.5741 55.2857 33.2323 55.2857 31.7079L50.2857 31.7079ZM47.545 33.7548L43.812 33.7548L43.812 38.7548L47.545 38.7548L47.545 33.7548ZM43.812 33.7548L33.9768 33.7548L33.9768 38.7548L43.812 38.7548L43.812 33.7548ZM42.954 38.603C43.3889 38.7619 43.8138 38.8226 44.0817 38.8543C44.3508 38.8862 44.6773 38.9101 44.8733 38.927C45.3686 38.9698 45.6342 39.0159 45.8137 39.0825C45.9302 39.1258 45.9225 39.1426 45.9268 39.1494C45.9562 39.1963 46.1219 39.4958 46.1219 40.346L51.1219 40.346C51.1219 38.8866 50.8419 37.5768 50.1638 36.4947C49.4607 35.3724 48.4838 34.7403 47.5535 34.395C46.686 34.073 45.8269 33.9908 45.3036 33.9456C44.9904 33.9185 44.8342 33.9085 44.6701 33.8891C44.5049 33.8695 44.5461 33.8614 44.6699 33.9067L42.954 38.603ZM46.1219 40.346C46.1219 40.6633 46.0355 40.8091 45.9262 40.9316C45.7711 41.1055 45.4697 41.321 44.9573 41.5188C43.9032 41.9259 42.6072 42.014 42.0172 42.014L42.0172 47.014C42.8631 47.014 44.8694 46.9127 46.7586 46.1831C48.671 45.4445 51.1219 43.7391 51.1219 40.346L46.1219 40.346ZM42.0172 42.014L39.2205 42.014L39.2205 47.014L42.0172 47.014L42.0172 42.014ZM39.2205 42.014L33.1153 42.014L33.1153 47.014L39.2205 47.014L39.2205 42.014ZM33.1153 42.014L31.8231 42.014L31.8231 47.014L33.1153 47.014L33.1153 42.014ZM31.8231 47.014C33.9878 47.014 36.5161 46.7893 39.0049 47.0047L39.4361 42.0233C36.6973 41.7863 33.3707 42.014 31.8231 42.014L31.8231 47.014ZM39.0049 47.0047C40.427 47.1278 41.418 47.3778 41.9861 47.6925C42.2396 47.8328 42.3202 47.9384 42.3403 47.9691C42.3475 47.98 42.3888 48.0335 42.3888 48.2263L47.3888 48.2263C47.3888 45.8567 46.0735 44.2406 44.4087 43.3185C42.9045 42.4854 41.0613 42.164 39.4361 42.0233L39.0049 47.0047ZM42.3888 48.2263C42.3888 49.1005 42.2142 49.4658 42.1224 49.6041C42.0464 49.7186 41.8937 49.8847 41.4319 50.0506C40.9274 50.232 40.192 50.3616 39.1247 50.4306C38.0671 50.499 36.8527 50.5 35.4126 50.5L35.4126 55.5C36.8082 55.5 38.1962 55.501 39.4471 55.4202C40.6882 55.34 41.9674 55.1713 43.1231 54.7559C44.3214 54.3252 45.4743 53.5962 46.289 52.3681C47.0879 51.1638 47.3888 49.739 47.3888 48.2263L42.3888 48.2263ZM35.4126 50.5C29.8286 50.5 26.2904 50.3254 20.8365 49.5405L20.1242 54.4895C25.8695 55.3164 29.6538 55.5 35.4126 55.5L35.4126 50.5ZM20.8365 49.5405C17.3825 49.0433 14.1033 48.1715 11.497 46.2313C8.9835 44.3603 6.83958 41.3017 6.00926 35.8766L1.06681 36.6331C2.06875 43.1795 4.80653 47.4843 8.51141 50.2421C12.1234 52.9309 16.3993 53.9533 20.1242 54.4895L20.8365 49.5405ZM6.00926 35.8766C5.18645 30.5006 5.38769 27.3248 6.42109 24.9882C7.43685 22.6916 9.44955 20.7727 13.3785 18.3872L10.7835 14.1133C6.59598 16.6558 3.49571 19.2412 1.84836 22.9658C0.218665 26.6506 0.206649 31.013 1.06681 36.6331L6.00926 35.8766ZM13.3785 18.3872C21.4135 13.5087 19.5467 14.6825 30.4773 8.91391L28.1436 4.49192C17.2503 10.2408 18.9729 9.14112 10.7835 14.1133L13.3785 18.3872ZM30.3318 8.98477C31.7964 8.32926 33.1263 7.64624 34.2528 7.07921C35.4206 6.49144 36.3227 6.05333 37.0853 5.77652C37.8663 5.49306 38.2191 5.48854 38.3356 5.50535C38.3669 5.50988 38.3673 5.51324 38.3691 5.5144C38.3776 5.51979 38.4488 5.5659 38.5661 5.72567L42.5968 2.76716C41.7078 1.55586 40.5139 0.767944 39.0498 0.556627C37.7245 0.365352 36.4451 0.689732 35.3794 1.07653C34.2954 1.46998 33.1365 2.04348 32.0049 2.61305C30.8321 3.20337 29.6244 3.82341 28.2891 4.42106L30.3318 8.98477ZM38.5661 5.72567C39.0543 6.39093 39.1319 6.80725 39.138 7.02265C39.1442 7.24248 39.0835 7.53013 38.8243 7.94849C38.2036 8.95022 37.0318 9.87519 35.4569 11.1966L38.6706 15.027C39.8955 13.9993 41.9184 12.4478 43.0744 10.5822C43.7036 9.56686 44.1769 8.32314 44.136 6.88097C44.095 5.43437 43.5443 4.05807 42.5968 2.76716L38.5661 5.72567ZM35.4569 11.1966C33.9843 12.4321 33.749 12.7025 33.3184 13.1347C33.0075 13.4468 32.4698 13.9631 30.2177 15.8499L33.4286 19.6827C35.6991 17.7805 36.3819 17.1441 36.8607 16.6635C37.2198 16.303 37.3434 16.1406 38.6706 15.027L35.4569 11.1966Z" fill="black"/>
</svg>
