<svg width="94" height="94" viewBox="0 0 94 94" fill="none" xmlns="http://www.w3.org/2000/svg">
<rect width="94" height="94" fill="white"/>
<path d="M70.5335 56.177C74.4027 60.0462 76.6966 63.1489 73.7221 66.1234C70.7477 69.0978 65.218 63.9362 63.9961 62.7143L55.6467 54.3649C58.1923 56.9105 59.41 60.2747 57.2415 62.4432C53.9462 65.7385 51.4469 62.6376 50.3356 61.9161L47.6883 59.2687C48.2518 60.4701 51.4696 62.3095 48.2296 65.5494C45.5718 68.2073 41.6404 64.8074 40.6222 63.7892L38.6388 61.8058C40.6149 64.152 41.8571 66.6272 40.0547 68.4296C36.7063 71.778 34.008 69.0797 29.9861 65.0578C25.9641 61.0358 23.4932 58.3137 20.0875 53.7773C15.7212 47.9614 12.0294 40.4042 19.1272 30.7076C25.6467 21.8011 30.0049 20.4348 39.2175 22.7342C48.4252 25.0323 46.3551 24.5569 58.1329 28.256C63.862 30.469 68.3837 30.9146 67.8491 34.5259C67.1412 39.3066 62.7692 38.5876 59.1359 38.2498C55.5027 37.912 58.0197 38.3478 52.1546 37.7981L70.5335 56.177Z" fill="white"/>
<path d="M52.1546 37.7981L52.3646 35.5579C51.4203 35.4694 50.5219 35.9826 50.1184 36.8409C49.7149 37.6992 49.893 38.7184 50.5636 39.3891L52.1546 37.7981ZM63.9961 62.7143L65.5871 61.1233L65.5871 61.1233L63.9961 62.7143ZM55.6467 54.3649L54.0557 55.9559L54.0557 55.9559L55.6467 54.3649ZM49.7538 45.29C48.8751 44.4113 47.4505 44.4113 46.5718 45.29C45.6931 46.1687 45.6931 47.5933 46.5718 48.472L49.7538 45.29ZM50.3356 61.9161L48.7447 63.5071L48.912 63.6744L49.1104 63.8032L50.3356 61.9161ZM42.3044 50.7029C41.4258 49.8242 40.0011 49.8242 39.1225 50.7029C38.2438 51.5816 38.2438 53.0062 39.1225 53.8849L42.3044 50.7029ZM40.6222 63.7892L42.2132 62.1982L42.2132 62.1982L40.6222 63.7892ZM34.9838 54.9689C34.1052 54.0902 32.6805 54.0902 31.8019 54.9689C30.9232 55.8475 30.9232 57.2722 31.8019 58.1508L34.9838 54.9689ZM20.0875 53.7773L21.8868 52.4264L21.8868 52.4264L20.0875 53.7773ZM19.1272 30.7076L17.3116 29.3786L19.1272 30.7076ZM39.2175 22.7342L39.7623 20.5511L39.7623 20.5511L39.2175 22.7342ZM58.1329 28.256L58.9437 26.1571C58.8987 26.1397 58.8532 26.1238 58.8071 26.1094L58.1329 28.256ZM67.8491 34.5259L70.0748 34.8555L70.0748 34.8555L67.8491 34.5259ZM59.1359 38.2498L59.3442 36.0094L59.3442 36.0094L59.1359 38.2498ZM68.9425 57.768C70.9046 59.73 72.1284 61.1877 72.6198 62.3572C72.8395 62.8802 72.8537 63.2158 72.8106 63.4481C72.7685 63.6751 72.6292 64.0343 72.1311 64.5324L75.3131 67.7143C76.3023 66.7252 76.9917 65.5811 77.2351 64.2689C77.4776 62.9619 77.2342 61.7224 76.7685 60.6142C75.8893 58.5215 74.0317 56.4931 72.1245 54.586L68.9425 57.768ZM72.1311 64.5324C71.9415 64.722 71.7371 64.8133 71.3181 64.7761C70.8126 64.7313 70.1257 64.4925 69.304 64.0308C67.6707 63.1133 66.1574 61.6936 65.5871 61.1233L62.4052 64.3053C63.0568 64.9569 64.9192 66.729 67.0999 67.9541C68.1851 68.5637 69.5147 69.1339 70.9208 69.2586C72.4133 69.3909 74.0156 69.0119 75.3131 67.7143L72.1311 64.5324ZM65.5871 61.1233L57.2377 52.7739L54.0557 55.9559L62.4052 64.3053L65.5871 61.1233ZM57.2377 52.7739L49.7538 45.29L46.5718 48.472L54.0557 55.9559L57.2377 52.7739ZM54.0557 55.9559C55.1363 57.0364 55.802 58.1674 56.0269 59.0825C56.2311 59.9132 56.0679 60.4349 55.6505 60.8522L58.8325 64.0342C60.5837 62.283 60.8958 60.0384 60.3969 58.0084C59.9187 56.0629 58.7027 54.2389 57.2377 52.7739L54.0557 55.9559ZM55.6505 60.8522C55.0524 61.4503 54.6406 61.6109 54.4331 61.6577C54.2374 61.7019 54.04 61.6873 53.7794 61.5867C53.4888 61.4746 53.1697 61.2739 52.7935 60.9841C52.6036 60.8377 52.4388 60.7006 52.2365 60.5359C52.0658 60.397 51.816 60.1946 51.5609 60.029L49.1104 63.8032C49.1091 63.8024 49.1151 63.8062 49.1297 63.8168C49.1442 63.8272 49.1639 63.8418 49.1899 63.8618C49.244 63.9033 49.3094 63.9556 49.3961 64.0262C49.556 64.1563 49.7945 64.3541 50.0467 64.5484C50.5547 64.9399 51.2747 65.4437 52.1598 65.7852C53.0748 66.1381 54.1896 66.3259 55.424 66.0473C56.6466 65.7713 57.783 65.0837 58.8325 64.0342L55.6505 60.8522ZM51.9266 60.3251L49.2793 57.6777L46.0973 60.8597L48.7447 63.5071L51.9266 60.3251ZM49.2793 57.6777L42.3044 50.7029L39.1225 53.8849L46.0973 60.8597L49.2793 57.6777ZM45.6513 60.2243C45.8343 60.6145 46.0768 60.938 46.2408 61.1456C46.4056 61.3541 46.6142 61.5951 46.7456 61.751C47.0679 62.1337 47.2459 62.3792 47.3435 62.5898C47.4162 62.747 47.4108 62.8105 47.3958 62.8775C47.3718 62.9841 47.252 63.345 46.6386 63.9584L49.8206 67.1404C50.8272 66.1338 51.5202 65.0498 51.7866 63.8628C52.0618 62.6362 51.8242 61.5571 51.4271 60.6993C51.0547 59.895 50.5251 59.2529 50.1869 58.8515C49.988 58.6155 49.878 58.4903 49.7716 58.3557C49.6645 58.2201 49.6831 58.2232 49.7253 58.3131L45.6513 60.2243ZM46.6386 63.9584C46.2735 64.3236 45.7956 64.4706 44.7296 63.9939C43.6515 63.5118 42.642 62.627 42.2132 62.1982L39.0312 65.3802C39.6207 65.9696 41.0859 67.2939 42.8925 68.1018C44.7112 68.9151 47.5279 69.4331 49.8206 67.1404L46.6386 63.9584ZM42.2132 62.1982L40.2298 60.2149L37.0479 63.3968L39.0312 65.3802L42.2132 62.1982ZM31.8019 58.1508C33.3124 59.6614 35.295 61.3284 36.9179 63.2553L40.3598 60.3564C38.5929 58.2586 36.106 56.091 34.9838 54.9689L31.8019 58.1508ZM36.9179 63.2553C37.8479 64.3595 38.4057 65.2737 38.604 65.9525C38.6944 66.2622 38.6833 66.435 38.6669 66.516C38.6549 66.5749 38.6246 66.6778 38.4637 66.8386L41.6457 70.0206C43.2463 68.42 43.4352 66.4423 42.9234 64.6907C42.4572 63.0948 41.4058 61.5983 40.3598 60.3564L36.9179 63.2553ZM38.4637 66.8386C37.8327 67.4696 37.4175 67.6304 37.1993 67.6734C37.0039 67.7119 36.723 67.7056 36.2391 67.4756C35.7197 67.2286 35.0843 66.7782 34.2714 66.063C33.4653 65.3537 32.5965 64.4862 31.577 63.4668L28.3951 66.6487C29.3866 67.6402 30.3633 68.6183 31.2989 69.4415C32.2278 70.2588 33.2303 71.0278 34.3068 71.5396C35.4188 72.0683 36.6917 72.3601 38.0696 72.0885C39.4248 71.8213 40.6025 71.0638 41.6457 70.0206L38.4637 66.8386ZM31.577 63.4668C27.6101 59.4998 25.2139 56.858 21.8868 52.4264L18.2882 55.1282C21.7726 59.7694 24.3181 62.5718 28.3951 66.6487L31.577 63.4668ZM21.8868 52.4264C19.7761 49.615 18.0301 46.6339 17.5328 43.3599C17.0515 40.1912 17.6996 36.4672 20.9428 32.0366L17.3116 29.3786C13.457 34.6446 12.4021 39.5475 13.0838 44.0356C13.7495 48.4184 16.0325 52.1237 18.2882 55.1282L21.8868 52.4264ZM20.9428 32.0366C24.1359 27.6743 26.5352 25.5489 28.9654 24.6206C31.3623 23.7049 34.1951 23.7997 38.6726 24.9172L39.7623 20.5511C35.0273 19.3693 31.0747 18.9976 27.3595 20.4169C23.6775 21.8234 20.6379 24.8345 17.3116 29.3786L20.9428 32.0366ZM38.6726 24.9172C47.802 27.1958 45.6629 26.6978 57.4588 30.4026L58.8071 26.1094C47.0473 22.4159 49.0485 22.8688 39.7623 20.5511L38.6726 24.9172ZM57.3222 30.3548C58.8135 30.9309 60.2288 31.3927 61.428 31.7947C62.6663 32.2099 63.6283 32.547 64.3801 32.9016C65.1473 33.2635 65.4502 33.5347 65.5623 33.6841C65.5996 33.7338 65.6794 33.8178 65.6233 34.1964L70.0748 34.8555C70.2861 33.4284 70.0012 32.1024 69.162 30.9838C68.3976 29.9648 67.3122 29.3092 66.2998 28.8316C65.2718 28.3468 64.0626 27.9318 62.8584 27.5281C61.6153 27.1114 60.3169 26.6876 58.9437 26.1571L57.3222 30.3548ZM65.6233 34.1964C65.4976 35.0454 65.2453 35.4354 65.064 35.6274C64.88 35.8222 64.5947 35.9975 64.086 36.1144C62.8969 36.3874 61.3667 36.1975 59.3442 36.0094L58.9276 40.4901C60.5384 40.6399 63.0109 40.9784 65.0931 40.5002C66.22 40.2414 67.3875 39.7212 68.3359 38.7169C69.287 37.7097 69.8466 36.3968 70.0748 34.8555L65.6233 34.1964ZM59.3442 36.0094C57.4427 35.8327 57.0939 35.8556 56.4902 35.8534C56.0392 35.8518 55.2865 35.8317 52.3646 35.5579L51.9447 40.0383C54.8879 40.3141 55.8092 40.351 56.4742 40.3534C56.9866 40.3552 57.1958 40.3291 58.9276 40.4901L59.3442 36.0094ZM72.1245 54.586L53.7456 36.2071L50.5636 39.3891L68.9425 57.768L72.1245 54.586ZM40.2298 60.2149L34.9838 54.9689L31.8019 58.1508L37.0478 63.3968L40.2298 60.2149Z" fill="black"/>
</svg>
