<svg width="54" height="20" viewBox="0 0 54 20" fill="none" xmlns="http://www.w3.org/2000/svg">
<rect x="0.5" y="0.5" width="53" height="19" rx="0.8" fill="white" fill-opacity="0.5" stroke="#6C6C6C"/>
<path d="M43.4167 14.8333C46.4082 14.8333 48.8333 12.4082 48.8333 9.41667C48.8333 6.42512 46.4082 4 43.4167 4C40.4251 4 38 6.42512 38 9.41667C38 12.4082 40.4251 14.8333 43.4167 14.8333Z" stroke="#6C6C6C" stroke-linecap="round" stroke-linejoin="round"/>
<path d="M44.668 7.25L47.7771 12.6342" stroke="#6C6C6C" stroke-linecap="round" stroke-linejoin="round"/>
<path d="M42.1655 7.25H48.3839" stroke="#6C6C6C" stroke-linecap="round" stroke-linejoin="round"/>
<path d="M40.9143 9.41664L44.0235 4.03247" stroke="#6C6C6C" stroke-linecap="round" stroke-linejoin="round"/>
<path d="M42.1656 11.5834L39.0564 6.19922" stroke="#6C6C6C" stroke-linecap="round" stroke-linejoin="round"/>
<path d="M44.668 11.5835H38.4497" stroke="#6C6C6C" stroke-linecap="round" stroke-linejoin="round"/>
<path d="M45.9192 9.41675L42.8101 14.8009" stroke="#6C6C6C" stroke-linecap="round" stroke-linejoin="round"/>
<path d="M5.01367 8.3916V7.14551H9.76172V8.41846L6.7915 11.7432H9.86377V13H4.80957V11.8076L7.81201 8.3916H5.01367ZM13.4731 11.9204C13.9207 11.9204 14.2645 11.7611 14.5044 11.4424C14.7443 11.1237 14.8643 10.6707 14.8643 10.0835C14.8643 9.49626 14.7443 9.04508 14.5044 8.72998C14.2645 8.4113 13.9207 8.25195 13.4731 8.25195C13.0256 8.25195 12.68 8.4113 12.4365 8.72998C12.1966 9.04508 12.0767 9.49626 12.0767 10.0835C12.0767 10.6707 12.1966 11.1237 12.4365 11.4424C12.68 11.7611 13.0256 11.9204 13.4731 11.9204ZM16.4702 10.0835C16.4702 10.9429 16.2231 11.6787 15.729 12.291C15.2349 12.8997 14.4847 13.2041 13.4785 13.2041C12.4723 13.2041 11.7222 12.8997 11.228 12.291C10.7339 11.6787 10.4868 10.9429 10.4868 10.0835C10.4868 9.23844 10.7339 8.50618 11.228 7.88672C11.7222 7.26725 12.4723 6.95752 13.4785 6.95752C14.4847 6.95752 15.2349 7.26725 15.729 7.88672C16.2231 8.50618 16.4702 9.23844 16.4702 10.0835ZM20.1978 11.9204C20.6453 11.9204 20.9891 11.7611 21.229 11.4424C21.4689 11.1237 21.5889 10.6707 21.5889 10.0835C21.5889 9.49626 21.4689 9.04508 21.229 8.72998C20.9891 8.4113 20.6453 8.25195 20.1978 8.25195C19.7502 8.25195 19.4046 8.4113 19.1611 8.72998C18.9212 9.04508 18.8013 9.49626 18.8013 10.0835C18.8013 10.6707 18.9212 11.1237 19.1611 11.4424C19.4046 11.7611 19.7502 11.9204 20.1978 11.9204ZM23.1948 10.0835C23.1948 10.9429 22.9478 11.6787 22.4536 12.291C21.9595 12.8997 21.2093 13.2041 20.2031 13.2041C19.1969 13.2041 18.4468 12.8997 17.9526 12.291C17.4585 11.6787 17.2114 10.9429 17.2114 10.0835C17.2114 9.23844 17.4585 8.50618 17.9526 7.88672C18.4468 7.26725 19.1969 6.95752 20.2031 6.95752C21.2093 6.95752 21.9595 7.26725 22.4536 7.88672C22.9478 8.50618 23.1948 9.23844 23.1948 10.0835ZM30.8379 7.0166C31.0957 7.0166 31.3499 7.06673 31.6006 7.16699C31.8512 7.26725 32.0786 7.44271 32.2827 7.69336C32.4474 7.89746 32.5584 8.14811 32.6157 8.44531C32.6515 8.64225 32.6694 8.9305 32.6694 9.31006L32.6587 13H31.0903V9.27246C31.0903 9.05046 31.0545 8.86784 30.9829 8.72461C30.8468 8.45247 30.5962 8.31641 30.231 8.31641C29.8084 8.31641 29.5166 8.49186 29.3555 8.84277C29.2731 9.02897 29.2319 9.25277 29.2319 9.51416V13H27.6904V9.51416C27.6904 9.16683 27.6546 8.91439 27.583 8.75684C27.4541 8.47396 27.2017 8.33252 26.8257 8.33252C26.3888 8.33252 26.0952 8.47396 25.9448 8.75684C25.8625 8.91797 25.8213 9.15788 25.8213 9.47656V13H24.269V7.15625H25.7568V8.01025C25.9466 7.70589 26.1257 7.48926 26.2939 7.36035C26.5911 7.13118 26.9761 7.0166 27.4487 7.0166C27.8963 7.0166 28.258 7.11507 28.5337 7.31201C28.7557 7.49463 28.924 7.72917 29.0386 8.01562C29.2391 7.67188 29.488 7.41943 29.7852 7.2583C30.1003 7.09717 30.4512 7.0166 30.8379 7.0166Z" fill="#6C6C6C"/>
</svg>
